C:\Users\r0593348\3dpredictsim\Results\batch_windlass\Pog_s1_tmt_bCst_d00_k1000_WL10_ig24_pas_GRF.mot
nRows=22
nColumns=19

name C:\Users\r0593348\3dpredictsim\Results\batch_windlass\Pog_s1_tmt_bCst_d00_k1000_WL10_ig24_pas_GRF.mot
datacolumns 19
datarows 22
range 0.5411444747 0.7684251541
endheader
time 	ground_force_vx	ground_force_vy	ground_force_vz	ground_force_px	ground_force_py	ground_force_pz	1_ground_force_vx	1_ground_force_vy	1_ground_force_vz	1_ground_force_px	1_ground_force_py	1_ground_force_pz	ground_torque_x	ground_torque_y	ground_torque_z	1_ground_torque_x	1_ground_torque_y	1_ground_torque_z
        0.5411444747	       99.8610531227	      442.4236926162	       -0.6198879891	        0.3411410485	        0.0000000000	        0.0329316330	      -74.7310837895	       55.4888413996	      -21.0028384441	        0.8081690242	        0.0000000000	       -0.0430166370	        0.0000000000	        0.0000000000	        0.0000000000	        0.0000000000	        0.0000000000	        0.0000000000	
        0.5519673642	       75.6692126898	      345.0916354470	        4.8509002065	        0.3468664368	        0.0000000000	        0.0305780116	     -122.0905921580	      112.0638807873	      -43.2249877048	        0.8188680549	        0.0000000000	       -0.0406119196	        0.0000000000	        0.0000000000	        0.0000000000	        0.0000000000	        0.0000000000	        0.0000000000	
        0.5627902537	       38.0009367737	      233.3124944456	       12.3593585052	        0.3575160241	        0.0000000000	        0.0254164402	     -118.9589663440	      236.3650302491	      -59.9237146131	        0.8302911564	        0.0000000000	       -0.0404047937	        0.0000000000	        0.0000000000	        0.0000000000	        0.0000000000	        0.0000000000	        0.0000000000	
        0.5736131432	       13.3148048265	      153.1590888909	       14.9931633863	        0.3718176715	        0.0000000000	        0.0172965810	      -65.3544091443	      489.0206540825	       -8.2102414393	        0.8415763920	        0.0000000000	       -0.0414971047	        0.0000000000	        0.0000000000	        0.0000000000	        0.0000000000	        0.0000000000	        0.0000000000	
        0.5844360327	        2.7720565210	      122.1292433258	       12.1797689230	        0.3711669795	        0.0000000000	        0.0174383599	      -90.2708016792	      736.5234483083	       10.9191366981	        0.8511237037	        0.0000000000	       -0.0423667257	        0.0000000000	        0.0000000000	        0.0000000000	        0.0000000000	        0.0000000000	        0.0000000000	
        0.5952589222	       -3.7903592575	       79.6455462225	       10.2079257676	        0.3712901006	        0.0000000000	        0.0174238044	     -122.0419808632	      927.2440153905	       16.5955432650	        0.8609649397	        0.0000000000	       -0.0418122377	        0.0000000000	        0.0000000000	        0.0000000000	        0.0000000000	        0.0000000000	        0.0000000000	
        0.6060818117	      -10.1935699344	       29.0241276535	        5.1179095109	        0.3703528799	        0.0000000000	        0.0173610658	     -135.4775864703	      991.8272552352	       15.4027152618	        0.8696800503	        0.0000000000	       -0.0409185233	        0.0000000000	        0.0000000000	        0.0000000000	        0.0000000000	        0.0000000000	        0.0000000000	
        0.6169047012	        0.1011868460	       -0.1069364128	       -0.0136162048	        0.0000000000	        0.0000000000	        0.0000000000	     -126.7005971774	      955.7124903160	       11.4960909986	        0.8738603086	        0.0000000000	       -0.0403124966	        0.0000000000	        0.0000000000	        0.0000000000	        0.0000000000	        0.0000000000	        0.0000000000	
        0.6277275907	        0.0001953272	       -0.0001739686	       -0.0000070454	        0.0000000000	        0.0000000000	        0.0000000000	     -108.1860204573	      885.5945648602	       10.8985596623	        0.8770370049	        0.0000000000	       -0.0398341071	        0.0000000000	        0.0000000000	        0.0000000000	        0.0000000000	        0.0000000000	        0.0000000000	
        0.6385504802	        0.0000088875	       -0.0000068054	        0.0000000513	        0.0000000000	        0.0000000000	        0.0000000000	      -92.3331434542	      820.8224285559	       11.7832057364	        0.8802370909	        0.0000000000	       -0.0394692042	        0.0000000000	        0.0000000000	        0.0000000000	        0.0000000000	        0.0000000000	        0.0000000000	
        0.6493733697	        0.0000164084	       -0.0000110134	        0.0000005395	        0.0000000000	        0.0000000000	        0.0000000000	      -78.5502923615	      769.2054623531	       13.0486092812	        0.8834236015	        0.0000000000	       -0.0392180844	        0.0000000000	        0.0000000000	        0.0000000000	        0.0000000000	        0.0000000000	        0.0000000000	
        0.6601962592	        0.0003099037	       -0.0001869404	        0.0000159699	        0.0000000000	        0.0000000000	        0.0000000000	      -65.6593027971	      726.9486332816	       14.1088160015	        0.8866435354	        0.0000000000	       -0.0390631360	        0.0000000000	        0.0000000000	        0.0000000000	        0.0000000000	        0.0000000000	        0.0000000000	
        0.6710191487	       -0.0019456601	        0.0010802714	       -0.0001253337	        0.0000000000	        0.0000000000	        0.0000000000	      -53.8492554710	      691.0043855650	       15.6482611856	        0.8903501183	        0.0000000000	       -0.0389579169	        0.0000000000	        0.0000000000	        0.0000000000	        0.0000000000	        0.0000000000	        0.0000000000	
        0.6818420382	       -0.0102568386	        0.0053449368	       -0.0007671554	        0.0000000000	        0.0000000000	        0.0000000000	      -44.5618164398	      661.1291573507	       17.8246355594	        0.8951879753	        0.0000000000	       -0.0388339453	        0.0000000000	        0.0000000000	        0.0000000000	        0.0000000000	        0.0000000000	        0.0000000000	
        0.6926649277	       -0.0068579138	        0.0034003145	       -0.0005760432	        0.0000000000	        0.0000000000	        0.0000000000	      -38.3628785944	      637.6611876072	       19.5585795083	        0.9007988581	        0.0000000000	       -0.0386967823	        0.0000000000	        0.0000000000	        0.0000000000	        0.0000000000	        0.0000000000	        0.0000000000	
        0.7034878172	       -0.0052365554	        0.0024917941	       -0.0004827421	        0.0000000000	        0.0000000000	        0.0000000000	      -33.5857250133	      620.2066125154	       20.8325897494	        0.9068061090	        0.0000000000	       -0.0385522048	        0.0000000000	        0.0000000000	        0.0000000000	        0.0000000000	        0.0000000000	        0.0000000000	
        0.7143107067	       -0.0052543480	        0.0024126129	       -0.0005227809	        0.0000000000	        0.0000000000	        0.0000000000	      -29.9590131291	      607.6343323180	       21.6833446794	        0.9129835652	        0.0000000000	       -0.0383997457	        0.0000000000	        0.0000000000	        0.0000000000	        0.0000000000	        0.0000000000	        0.0000000000	
        0.7251335962	       -0.0069785370	        0.0031038242	       -0.0007365644	        0.0000000000	        0.0000000000	        0.0000000000	      -27.0806980372	      598.5764576863	       21.6768249188	        0.9190431508	        0.0000000000	       -0.0382579095	        0.0000000000	        0.0000000000	        0.0000000000	        0.0000000000	        0.0000000000	        0.0000000000	
        0.7359564857	       -0.0116926402	        0.0050535363	       -0.0012854304	        0.0000000000	        0.0000000000	        0.0000000000	      -24.4693254521	      592.3914933857	       21.1077541052	        0.9250260309	        0.0000000000	       -0.0381149437	        0.0000000000	        0.0000000000	        0.0000000000	        0.0000000000	        0.0000000000	        0.0000000000	
        0.7467793752	       -0.0230106128	        0.0096934427	       -0.0025933112	        0.0000000000	        0.0000000000	        0.0000000000	      -22.8240976161	      588.6232541055	       20.2627482833	        0.9308943708	        0.0000000000	       -0.0379625301	        0.0000000000	        0.0000000000	        0.0000000000	        0.0000000000	        0.0000000000	        0.0000000000	
        0.7576022646	       -0.0491008274	        0.0202205897	       -0.0055918777	        0.0000000000	        0.0000000000	        0.0000000000	      -21.4875589767	      585.9729240754	       19.1363744028	        0.9365084760	        0.0000000000	       -0.0378115225	        0.0000000000	        0.0000000000	        0.0000000000	        0.0000000000	        0.0000000000	        0.0000000000	
        0.7684251541	       -0.1053202313	        0.0425241435	       -0.0119873663	        0.0000000000	        0.0000000000	        0.0000000000	      -19.9102001632	      583.0767297307	       18.0044949284	        0.9418335521	        0.0000000000	       -0.0376645108	        0.0000000000	        0.0000000000	        0.0000000000	        0.0000000000	        0.0000000000	        0.0000000000	
